<svg xmlns="http://www.w3.org/2000/svg" viewBox="0 0 100 100">
  <defs>
    <linearGradient id="logoGradient" x1="0%" y1="0%" x2="100%" y2="100%">
      <stop offset="0%" style="stop-color:#0077be;stop-opacity:1" />
      <stop offset="100%" style="stop-color:#20b2aa;stop-opacity:1" />
    </linearGradient>
  </defs>
  
  <!-- Wave background -->
  <path d="M0,60 Q25,50 50,60 T100,60 L100,100 L0,100 Z" fill="url(#logoGradient)" opacity="0.3"/>
  <path d="M0,70 Q25,60 50,70 T100,70 L100,100 L0,100 Z" fill="url(#logoGradient)" opacity="0.6"/>
  <path d="M0,80 Q25,70 50,80 T100,80 L100,100 L0,100 Z" fill="url(#logoGradient)"/>
  
  <!-- Beach cleanup tools -->
  <circle cx="30" cy="35" r="3" fill="#ff6b35"/>
  <rect x="28" y="38" width="4" height="15" fill="#8b4513"/>
  
  <!-- Trash bag -->
  <ellipse cx="70" cy="45" rx="8" ry="12" fill="#2d3436"/>
  <rect x="68" y="33" width="4" height="6" fill="#636e72"/>
  
  <!-- Sun -->
  <circle cx="20" cy="20" r="6" fill="#fdcb6e"/>
  <line x1="20" y1="8" x2="20" y2="12" stroke="#fdcb6e" stroke-width="2"/>
  <line x1="32" y1="20" x2="28" y2="20" stroke="#fdcb6e" stroke-width="2"/>
  <line x1="20" y1="32" x2="20" y2="28" stroke="#fdcb6e" stroke-width="2"/>
  <line x1="8" y1="20" x2="12" y2="20" stroke="#fdcb6e" stroke-width="2"/>
</svg>
